<svg xmlns="http://www.w3.org/2000/svg" xmlns:xlink="http://www.w3.org/1999/xlink" version="1.1" width="595.1" height="802.8" viewBox="19.6 83.2 595.1 802.8"><g><g transform="translate(77,570)"><g><g>
<g stroke="#000000" stroke-dasharray="none" fill="#FFFFFF">
    <path stroke-linecap="round" stroke-linejoin="round" d="M47,0H94c20.8,27.3,25,79.1,9.4,115.5c-2.7,6.3,-5.8,11.8,-9.4,16.5H47C24.9,130.1,5.9,103.5,0,66C5.9,28.5,24.9,1.9,47,0z"/>
</g>
<rect x="21.9" y="18.5" fill="none" width="79.9" height="95.7"/>
<circle fill="none" cx="65.8" cy="0.1" r="0.1"/>
<circle fill="none" cx="94" cy="0.1" r="0.1"/>
<circle fill="none" cx="105.2" cy="21.4" r="0.1"/>
<circle fill="none" cx="112.9" cy="63.7" r="0.1"/>
<circle fill="none" cx="104.2" cy="113.4" r="0.1"/>
<circle fill="none" cx="83.2" cy="131.6" r="0.1"/>
<circle fill="none" cx="58.6" cy="131.5" r="0.1"/>
<circle fill="none" cx="31.6" cy="126.4" r="0.1"/>
<circle fill="none" cx="10.3" cy="100.9" r="0.1"/>
<circle fill="none" cx="-0.1" cy="66.7" r="0.1"/>
<circle fill="none" cx="14.6" cy="23.5" r="0.1"/>
<circle fill="none" cx="40.8" cy="1.3" r="0.1"/>
</g></g><rect stroke="none" stroke-width="1" fill="#FFFFFF" x="0" y="0" width="40" height="20" transform="translate(-57.4,-16.6)"/><path stroke="#000000" fill="none" d="M14.6,23.5 C8.4,0.3 -13.9,26.7 -20.1 3.4"/><text font-family="OpenSansCondensedLight" font-size="14pt" fill="black" transform="translate(-57.4,-16.6)" text-anchor="middle"><tspan x="20" y="16.3">122</tspan></text><rect stroke-width="0" fill="none" width="79.9" height="95.7" transform="translate(21.9,18.5)"/><text font-family="OpenSansCondensedLight" font-size="14pt" fill="black" transform="translate(21.9,18.5)" text-anchor="middle"><tspan x="40" y="54.2"> </tspan></text><path stroke="#000000" fill="none" transform="translate(21.9,18.5)" d="M 0 0"/></g><g transform="translate(101,262)"><g><g>
<g stroke="#000000" stroke-dasharray="none" fill="#FFFFFF">
    <path d="M447.4,481.5H22.6C10.2,481.5,0,462.9,0,440.3V41.2C0,18.5,10.2,0,22.6,0h424.8c12.4,0,22.6,18.5,22.6,41.2v399.1C470,463.1,459.8,481.5,447.4,481.5z"/>
</g>
<rect x="20.9" y="16.4" width="430.9" height="437.6" fill="none"/>
<circle cx="236.1" cy="0.5" r="0.1"/>
<circle cx="375.8" cy="0" r="0.1"/>
<circle cx="470" cy="58.3" r="0.1"/>
<circle cx="470" cy="235.3" r="0.1"/>
<circle cx="470" cy="393.2" r="0.1"/>
<circle cx="375.5" cy="482" r="0.1"/>
<circle cx="236.4" cy="481" r="0.1"/>
<circle cx="79.3" cy="481.5" r="0.1"/>
<circle cx="0" cy="393.7" r="0.1"/>
<circle cx="0" cy="240.7" r="0.1"/>
<circle cx="0" cy="103.2" r="0.1"/>
<circle cx="79.5" cy="0.5" r="0.1"/>
</g></g><rect stroke="none" stroke-width="0" fill="#FFFFFF" x="0" y="0" width="0" height="0" transform="translate(469.9,235.2)"/><path stroke="#000000" fill="none" d=""/><text font-family="OpenSansCondensedLight" font-size="14pt" fill="black" transform="translate(469.9,235.2)"/><rect stroke-width="0" fill="none" width="430.9" height="437.6" transform="translate(20.9,16.4)"/><text font-family="OpenSansCondensedLight" font-size="14pt" fill="black" transform="translate(20.9,16.4)" text-anchor="middle"><tspan x="215.5" y="225.1"> </tspan></text><path stroke="#000000" fill="none" transform="translate(20.9,16.4)" d="M 0 0"/></g><g transform="translate(505,146)"><g><g>
<path d="M45,0C20.1,0,0,25.1,0,56s20.1,56,45,56s45,-25.1,45,-56S70,0,45,0L45,0z" stroke="#000000" stroke-dasharray="none" fill="#FFFFFF"/>
<rect x="8.9" y="28.5" width="72.5" height="55" fill="none"/>
<circle fill="none" cx="45.1" cy="0" r="0.1"/>
<circle fill="none" cx="66.5" cy="6.8" r="0.1"/>
<circle fill="none" cx="84.3" cy="28.6" r="0.1"/>
<circle fill="none" cx="90" cy="56" r="0.1"/>
<circle fill="none" cx="84.2" cy="83.5" r="0.1"/>
<circle fill="none" cx="67.1" cy="104.7" r="0.1"/>
<circle fill="none" cx="45" cy="112" r="0.1"/>
<circle fill="none" cx="22.8" cy="104.7" r="0.1"/>
<circle fill="none" cx="5.8" cy="83.5" r="0.1"/>
<circle fill="none" cx="0" cy="55.5" r="0.1"/>
<circle fill="none" cx="5.8" cy="28.6" r="0.1"/>
<circle fill="none" cx="23.4" cy="6.8" r="0.1"/>
</g></g><rect stroke="none" stroke-width="0" fill="#FFFFFF" x="0" y="0" width="0" height="0" transform="translate(89.9,55.9)"/><path stroke="#000000" fill="none" d=""/><text font-family="OpenSansCondensedLight" font-size="14pt" fill="black" transform="translate(89.9,55.9)"/><rect stroke-width="0" fill="none" width="72.5" height="55" transform="translate(8.9,28.5)"/><text font-family="OpenSansCondensedLight" font-size="14pt" fill="black" transform="translate(8.9,28.5)" text-anchor="middle"><tspan x="36.2" y="33.8"> </tspan></text><path stroke="#000000" fill="none" transform="translate(8.9,28.5)" d="M 0 0"/></g><g transform="translate(76,145)"><g><g>
<path d="M45,0C20.1,0,0,25.1,0,56s20.1,56,45,56s45,-25.1,45,-56S70,0,45,0L45,0z" stroke="#000000" stroke-dasharray="none" fill="#FFFFFF"/>
<rect x="8.9" y="28.5" width="72.5" height="55" fill="none"/>
<circle fill="none" cx="45.1" cy="0" r="0.1"/>
<circle fill="none" cx="66.5" cy="6.8" r="0.1"/>
<circle fill="none" cx="84.3" cy="28.6" r="0.1"/>
<circle fill="none" cx="90" cy="56" r="0.1"/>
<circle fill="none" cx="84.2" cy="83.5" r="0.1"/>
<circle fill="none" cx="67.1" cy="104.7" r="0.1"/>
<circle fill="none" cx="45" cy="112" r="0.1"/>
<circle fill="none" cx="22.8" cy="104.7" r="0.1"/>
<circle fill="none" cx="5.8" cy="83.5" r="0.1"/>
<circle fill="none" cx="0" cy="55.5" r="0.1"/>
<circle fill="none" cx="5.8" cy="28.6" r="0.1"/>
<circle fill="none" cx="23.4" cy="6.8" r="0.1"/>
</g></g><rect stroke="none" stroke-width="0" fill="#FFFFFF" x="0" y="0" width="0" height="0" transform="translate(89.9,55.9)"/><path stroke="#000000" fill="none" d=""/><text font-family="OpenSansCondensedLight" font-size="14pt" fill="black" transform="translate(89.9,55.9)"/><rect stroke-width="0" fill="none" width="72.5" height="55" transform="translate(8.9,28.5)"/><text font-family="OpenSansCondensedLight" font-size="14pt" fill="black" transform="translate(8.9,28.5)" text-anchor="middle"><tspan x="36.2" y="33.8"> </tspan></text><path stroke="#000000" fill="none" transform="translate(8.9,28.5)" d="M 0 0"/></g><g transform="translate(100,146)"><g><g>
<g stroke="#000000" stroke-dasharray="none" fill="#FFFFFF">
    <path d="M449.3,110.9H22.7C10.2,110.9,0,106.6,0,101.4V9.5C0,4.3,10.2,0,22.7,0h426.6c12.5,0,22.7,4.3,22.7,9.5v91.9C472,106.7,461.8,110.9,449.3,110.9z"/>
</g>
<rect x="21" y="3.8" width="432.7" height="100.8" fill="none"/>
<circle cx="237.1" cy="0.1" r="0.1"/>
<circle cx="377.4" cy="0" r="0.1"/>
<circle cx="472" cy="13.4" r="0.1"/>
<circle cx="472" cy="54.2" r="0.1"/>
<circle cx="472" cy="90.5" r="0.1"/>
<circle cx="377.1" cy="111" r="0.1"/>
<circle cx="237.4" cy="110.8" r="0.1"/>
<circle cx="79.6" cy="110.9" r="0.1"/>
<circle cx="0" cy="90.7" r="0.1"/>
<circle cx="0" cy="55.4" r="0.1"/>
<circle cx="0" cy="23.8" r="0.1"/>
<circle cx="79.9" cy="0.1" r="0.1"/>
</g></g><rect stroke="none" stroke-width="1" fill="#FFFFFF" x="0" y="0" width="40" height="20" transform="translate(387.3,-62.1)"/><path stroke="#000000" fill="none" d="M377.4,0 C405.5,-7.6 373.5,-34.5 401.6 -42.1"/><text font-family="OpenSansCondensedLight" font-size="14pt" fill="black" transform="translate(387.3,-62.1)" text-anchor="middle"><tspan x="20" y="16.3">102</tspan></text><rect stroke-width="0" fill="none" width="432.7" height="100.8" transform="translate(21,3.8)"/><text font-family="OpenSansCondensedLight" font-size="14pt" fill="black" transform="translate(21,3.8)" text-anchor="middle"><tspan x="216.4" y="56.7"> </tspan></text><path stroke="#000000" fill="none" transform="translate(21,3.8)" d="M 0 0"/></g><g transform="translate(328,262)"><g><g>
<path d="M7.5,0C3.3,0,0,3.4,0,7.5s3.3,7.5,7.5,7.5s7.5,-3.4,7.5,-7.5S11.7,0,7.5,0L7.5,0z" stroke="#000000" stroke-dasharray="none" fill="#FFFFFF"/>
<rect x="1.5" y="3.8" width="12.1" height="7.4" fill="none"/>
<circle fill="none" cx="7.5" cy="0" r="0.1"/>
<circle fill="none" cx="11.1" cy="0.9" r="0.1"/>
<circle fill="none" cx="14" cy="3.8" r="0.1"/>
<circle fill="none" cx="15" cy="7.5" r="0.1"/>
<circle fill="none" cx="14" cy="11.2" r="0.1"/>
<circle fill="none" cx="11.2" cy="14" r="0.1"/>
<circle fill="none" cx="7.5" cy="15" r="0.1"/>
<circle fill="none" cx="3.8" cy="14" r="0.1"/>
<circle fill="none" cx="1" cy="11.2" r="0.1"/>
<circle fill="none" cx="0" cy="7.4" r="0.1"/>
<circle fill="none" cx="1" cy="3.8" r="0.1"/>
<circle fill="none" cx="3.9" cy="0.9" r="0.1"/>
</g></g><rect stroke="none" stroke-width="1" fill="#FFFFFF" x="0" y="0" width="40" height="20" transform="translate(-46.2,-61.1)"/><path stroke="#000000" fill="none" d="M3.9,0.9 C11.4,-27.2 -27.9,-13 -20.4 -41.1"/><text font-family="OpenSansCondensedLight" font-size="14pt" fill="black" transform="translate(-46.2,-61.1)" text-anchor="middle"><tspan x="20" y="16.3">106</tspan></text><rect stroke-width="0" fill="none" width="12.1" height="7.4" transform="translate(1.5,3.8)"/><text font-family="OpenSansCondensedLight" font-size="14pt" fill="black" transform="translate(1.5,3.8)" text-anchor="middle"><tspan x="6" y="10"> </tspan></text><path stroke="#000000" fill="none" transform="translate(1.5,3.8)" d="M 0 0"/></g><g transform="translate(99,257)"><g><g>
<g stroke="#000000" stroke-dasharray="none" fill="#FFFFFF">
    <path d="M449.3,110.9H22.7C10.2,110.9,0,106.6,0,101.4V9.5C0,4.3,10.2,0,22.7,0h426.6c12.5,0,22.7,4.3,22.7,9.5v91.9C472,106.7,461.8,110.9,449.3,110.9z"/>
</g>
<rect x="21" y="3.8" width="432.7" height="100.8" fill="none"/>
<circle cx="237.1" cy="0.1" r="0.1"/>
<circle cx="377.4" cy="0" r="0.1"/>
<circle cx="472" cy="13.4" r="0.1"/>
<circle cx="472" cy="54.2" r="0.1"/>
<circle cx="472" cy="90.5" r="0.1"/>
<circle cx="377.1" cy="111" r="0.1"/>
<circle cx="237.4" cy="110.8" r="0.1"/>
<circle cx="79.6" cy="110.9" r="0.1"/>
<circle cx="0" cy="90.7" r="0.1"/>
<circle cx="0" cy="55.4" r="0.1"/>
<circle cx="0" cy="23.8" r="0.1"/>
<circle cx="79.9" cy="0.1" r="0.1"/>
</g></g><rect stroke="none" stroke-width="0" fill="#FFFFFF" x="0" y="0" width="0" height="0" transform="translate(377.3,-0.1)"/><path stroke="#000000" fill="none" d=""/><text font-family="OpenSansCondensedLight" font-size="14pt" fill="black" transform="translate(377.3,-0.1)"/><rect stroke-width="0" fill="none" width="432.7" height="100.8" transform="translate(21,3.8)"/><text font-family="OpenSansCondensedLight" font-size="14pt" fill="black" transform="translate(21,3.8)" text-anchor="middle"><tspan x="216.4" y="56.7"> </tspan></text><path stroke="#000000" fill="none" transform="translate(21,3.8)" d="M 0 0"/></g><g transform="translate(327.5,318.5)"><g transform="rotate(270,9,41)"><g>
<g stroke="#000000" stroke-dasharray="none" fill="#FFFFFF">
    <path stroke-linecap="round" stroke-linejoin="round" d="M0,0h11.3c3.7,0,6.7,18.4,6.7,41S15,82,11.3,82l0,0H0V0z"/>
</g>
<rect x="0.7" y="8.7" fill="none" width="14" height="64.5"/>
<circle fill="none" cx="8" cy="0" r="0.1"/>
<circle fill="none" cx="11.7" cy="0.1" r="0.1"/>
<circle fill="none" cx="16.3" cy="14.2" r="0.1"/>
<circle fill="none" cx="18" cy="41" r="0.1"/>
<circle fill="none" cx="16.5" cy="66.5" r="0.1"/>
<circle fill="none" cx="13.3" cy="79.9" r="0.1"/>
<circle fill="none" cx="7.9" cy="82" r="0.1"/>
<circle fill="none" cx="2" cy="82" r="0.1"/>
<circle fill="none" cx="0" cy="68.7" r="0.1"/>
<circle fill="none" cx="0" cy="41" r="0.1"/>
<circle fill="none" cx="0" cy="13.2" r="0.1"/>
<circle fill="none" cx="2.8" cy="0" r="0.1"/>
</g></g><rect stroke="none" stroke-width="1" fill="#FFFFFF" x="0" y="0" width="40" height="20" transform="translate(44.4,-28.6)"/><path stroke="#000000" fill="none" d="M34.5,33.5 C62.6,25.9 30.5,-1 58.6 -8.6"/><text font-family="OpenSansCondensedLight" font-size="14pt" fill="black" transform="translate(44.4,-28.6)" text-anchor="middle"><tspan x="20" y="16.3">108</tspan></text><rect stroke-width="0" fill="none" width="64.5" height="14" transform="translate(-23.3,35.3)"/><text font-family="OpenSansCondensedLight" font-size="14pt" fill="black" transform="translate(-23.3,35.3)" text-anchor="middle"><tspan x="32.3" y="13.3"> </tspan></text><path stroke="#000000" fill="none" transform="translate(-23.3,35.3)" d="M 0 0"/></g><g transform="translate(132,404)"><g transform="rotate(90,106,15.5)"><g>
<g stroke="#000000" stroke-dasharray="5,5" fill="#FFFFFF">
    <path stroke-linecap="round" stroke-linejoin="round" d="M0,0h132.5c43.9,0,79.5,6.9,79.5,15.5S176.4,31,132.5,31l0,0H0V0z"/>
</g>
<rect x="8.2" y="3.3" fill="none" width="165.3" height="24.4"/>
<circle fill="none" cx="93.7" cy="0" r="0.1"/>
<circle fill="none" cx="137.4" cy="0" r="0.1"/>
<circle fill="none" cx="192.2" cy="5.4" r="0.1"/>
<circle fill="none" cx="211.8" cy="15.5" r="0.1"/>
<circle fill="none" cx="194.7" cy="25.1" r="0.1"/>
<circle fill="none" cx="156.8" cy="30.2" r="0.1"/>
<circle fill="none" cx="93.5" cy="31" r="0.1"/>
<circle fill="none" cx="23.5" cy="31" r="0.1"/>
<circle fill="none" cx="0" cy="26" r="0.1"/>
<circle fill="none" cx="0" cy="15.5" r="0.1"/>
<circle fill="none" cx="0" cy="5" r="0.1"/>
<circle fill="none" cx="33" cy="0" r="0.1"/>
</g></g><rect stroke="none" stroke-width="0" fill="#FFFFFF" x="0" y="0" width="0" height="0" transform="translate(121.4,3.1)"/><path stroke="#000000" fill="none" d=""/><text font-family="OpenSansCondensedLight" font-size="14pt" fill="black" transform="translate(121.4,3.1)"/><rect stroke-width="0" fill="none" width="24.4" height="165.3" transform="translate(93.8,-82.3)"/><text font-family="OpenSansCondensedLight" font-size="14pt" fill="black" transform="translate(93.8,-82.3)" text-anchor="middle"><tspan x="12.2" y="88.9"> </tspan></text><path stroke="#000000" fill="none" transform="translate(93.8,-82.3)" d="M 0 0"/></g><g transform="translate(165,265)"><g><g>
<path d="M45,0C20.1,0,0,20.2,0,45s20.1,45,45,45s45,-20.2,45,-45S69.9,0,45,0L45,0z" stroke="#000000" stroke-dasharray="none" fill="#FFFFFF"/>
<rect x="8.8" y="22.9" width="72.4" height="44.2" fill="none"/>
<circle fill="none" cx="45.1" cy="0" r="0.1"/>
<circle fill="none" cx="66.5" cy="5.5" r="0.1"/>
<circle fill="none" cx="84.2" cy="23" r="0.1"/>
<circle fill="none" cx="90" cy="45" r="0.1"/>
<circle fill="none" cx="84.2" cy="67" r="0.1"/>
<circle fill="none" cx="67.1" cy="84.1" r="0.1"/>
<circle fill="none" cx="45" cy="90" r="0.1"/>
<circle fill="none" cx="22.8" cy="84.1" r="0.1"/>
<circle fill="none" cx="5.8" cy="67" r="0.1"/>
<circle fill="none" cx="0" cy="44.5" r="0.1"/>
<circle fill="none" cx="5.7" cy="23" r="0.1"/>
<circle fill="none" cx="23.4" cy="5.5" r="0.1"/>
</g></g><rect stroke="none" stroke-width="0" fill="#FFFFFF" x="0" y="0" width="0" height="0" transform="translate(89.9,44.9)"/><path stroke="#000000" fill="none" d=""/><text font-family="OpenSansCondensedLight" font-size="14pt" fill="black" transform="translate(89.9,44.9)"/><rect stroke-width="0" fill="none" width="72.4" height="44.2" transform="translate(8.8,22.9)"/><text font-family="OpenSansCondensedLight" font-size="14pt" fill="black" transform="translate(8.8,22.9)" text-anchor="middle"><tspan x="36.2" y="28.4"> 104</tspan></text><path stroke="#000000" fill="none" transform="translate(8.8,22.9)" d="M 22.2 30 50.2 30"/></g><g transform="translate(337,401)"><g transform="rotate(90,106,15.5)"><g>
<g stroke="#000000" stroke-dasharray="5,5" fill="#FFFFFF">
    <path stroke-linecap="round" stroke-linejoin="round" d="M0,0h132.5c43.9,0,79.5,6.9,79.5,15.5S176.4,31,132.5,31l0,0H0V0z"/>
</g>
<rect x="8.2" y="3.3" fill="none" width="165.3" height="24.4"/>
<circle fill="none" cx="93.7" cy="0" r="0.1"/>
<circle fill="none" cx="137.4" cy="0" r="0.1"/>
<circle fill="none" cx="192.2" cy="5.4" r="0.1"/>
<circle fill="none" cx="211.8" cy="15.5" r="0.1"/>
<circle fill="none" cx="194.7" cy="25.1" r="0.1"/>
<circle fill="none" cx="156.8" cy="30.2" r="0.1"/>
<circle fill="none" cx="93.5" cy="31" r="0.1"/>
<circle fill="none" cx="23.5" cy="31" r="0.1"/>
<circle fill="none" cx="0" cy="26" r="0.1"/>
<circle fill="none" cx="0" cy="15.5" r="0.1"/>
<circle fill="none" cx="0" cy="5" r="0.1"/>
<circle fill="none" cx="33" cy="0" r="0.1"/>
</g></g><rect stroke="none" stroke-width="0" fill="#FFFFFF" x="0" y="0" width="0" height="0" transform="translate(121.4,3.1)"/><path stroke="#000000" fill="none" d=""/><text font-family="OpenSansCondensedLight" font-size="14pt" fill="black" transform="translate(121.4,3.1)"/><rect stroke-width="0" fill="none" width="24.4" height="165.3" transform="translate(93.8,-82.3)"/><text font-family="OpenSansCondensedLight" font-size="14pt" fill="black" transform="translate(93.8,-82.3)" text-anchor="middle"><tspan x="12.2" y="88.9"> </tspan></text><path stroke="#000000" fill="none" transform="translate(93.8,-82.3)" d="M 0 0"/></g><g transform="translate(427,267)"><g><g>
<path d="M45,0C20.1,0,0,20.2,0,45s20.1,45,45,45s45,-20.2,45,-45S69.9,0,45,0L45,0z" stroke="#000000" stroke-dasharray="none" fill="#FFFFFF"/>
<rect x="8.8" y="22.9" width="72.4" height="44.2" fill="none"/>
<circle fill="none" cx="45.1" cy="0" r="0.1"/>
<circle fill="none" cx="66.5" cy="5.5" r="0.1"/>
<circle fill="none" cx="84.2" cy="23" r="0.1"/>
<circle fill="none" cx="90" cy="45" r="0.1"/>
<circle fill="none" cx="84.2" cy="67" r="0.1"/>
<circle fill="none" cx="67.1" cy="84.1" r="0.1"/>
<circle fill="none" cx="45" cy="90" r="0.1"/>
<circle fill="none" cx="22.8" cy="84.1" r="0.1"/>
<circle fill="none" cx="5.8" cy="67" r="0.1"/>
<circle fill="none" cx="0" cy="44.5" r="0.1"/>
<circle fill="none" cx="5.7" cy="23" r="0.1"/>
<circle fill="none" cx="23.4" cy="5.5" r="0.1"/>
</g></g><rect stroke="none" stroke-width="0" fill="#FFFFFF" x="0" y="0" width="0" height="0" transform="translate(89.9,44.9)"/><path stroke="#000000" fill="none" d=""/><text font-family="OpenSansCondensedLight" font-size="14pt" fill="black" transform="translate(89.9,44.9)"/><rect stroke-width="0" fill="none" width="72.4" height="44.2" transform="translate(8.8,22.9)"/><text font-family="OpenSansCondensedLight" font-size="14pt" fill="black" transform="translate(8.8,22.9)" text-anchor="middle"><tspan x="36.2" y="28.4"> 104</tspan></text><path stroke="#000000" fill="none" transform="translate(8.8,22.9)" d="M 22.2 30 50.2 30"/></g><g transform="translate(253,471)"><g><g>
<g fill="#FFFFFF">
    <rect y="0" width="177" height="18"/>
</g>
<g stroke="#000000" stroke-dasharray="none">
    <line fill="none" stroke-linejoin="round" x1="0" y1="18" x2="175" y2="18"/>
</g>
<rect x="6.9" y="0.7" fill="none" width="163.1" height="16.6"/>
<circle fill="none" cx="94" cy="18" r="0.1"/>
<circle fill="none" cx="123.8" cy="18" r="0.1"/>
<circle fill="none" cx="153.6" cy="18" r="0.1"/>
<circle fill="none" cx="168.5" cy="18" r="0.1"/>
<circle fill="none" cx="138.7" cy="18" r="0.1"/>
<circle fill="none" cx="108.9" cy="18" r="0.1"/>
<circle fill="none" cx="79.1" cy="18" r="0.1"/>
<circle fill="none" cx="49.3" cy="18" r="0.1"/>
<circle fill="none" cx="19.6" cy="18" r="0.1"/>
<circle fill="none" cx="4.7" cy="18" r="0.1"/>
<circle fill="none" cx="34.5" cy="18" r="0.1"/>
<circle fill="none" cx="64.2" cy="18" r="0.1"/>
</g></g><rect stroke="none" stroke-width="0" fill="#FFFFFF" x="0" y="0" width="0" height="0" transform="translate(108.8,17.9)"/><path stroke="#000000" fill="none" d=""/><text font-family="OpenSansCondensedLight" font-size="14pt" fill="black" transform="translate(108.8,17.9)"/><rect stroke-width="0" fill="none" width="163.1" height="16.6" transform="translate(6.9,0.7)"/><text font-family="OpenSansCondensedLight" font-size="14pt" fill="black" transform="translate(6.9,0.7)" text-anchor="middle"><tspan x="81.6" y="14.6"> 110</tspan></text><path stroke="#000000" fill="none" transform="translate(6.9,0.7)" d="M 67.9 17 95.2 17"/></g><g transform="translate(161,539)"><g><g>
<g stroke="#000000" stroke-dasharray="none" fill="#FFFFFF">
    <path d="M344.6,180.8H17.4C7.8,180.8,0,173.8,0,165.3V15.5C0,7,7.8,0,17.4,0h327.2c9.6,0,17.4,7,17.4,15.5v149.9C362,173.9,354.2,180.8,344.6,180.8z"/>
</g>
<rect x="16.1" y="6.2" width="331.9" height="164.3" fill="none"/>
<circle cx="181.8" cy="0.2" r="0.1"/>
<circle cx="289.5" cy="0" r="0.1"/>
<circle cx="362" cy="21.9" r="0.1"/>
<circle cx="362" cy="88.4" r="0.1"/>
<circle cx="362" cy="147.6" r="0.1"/>
<circle cx="289.2" cy="181" r="0.1"/>
<circle cx="182" cy="180.6" r="0.1"/>
<circle cx="61" cy="180.8" r="0.1"/>
<circle cx="0" cy="147.8" r="0.1"/>
<circle cx="0" cy="90.4" r="0.1"/>
<circle cx="0" cy="38.7" r="0.1"/>
<circle cx="61.3" cy="0.2" r="0.1"/>
</g></g><rect stroke="none" stroke-width="0" fill="#FFFFFF" x="0" y="0" width="0" height="0" transform="translate(361.9,88.3)"/><path stroke="#000000" fill="none" d=""/><text font-family="OpenSansCondensedLight" font-size="14pt" fill="black" transform="translate(361.9,88.3)"/><rect stroke-width="0" fill="none" width="331.9" height="164.3" transform="translate(16.1,6.2)"/><text font-family="OpenSansCondensedLight" font-size="14pt" fill="black" transform="translate(16.1,6.2)" text-anchor="middle"><tspan x="165.9" y="88.5"> </tspan></text><path stroke="#000000" fill="none" transform="translate(16.1,6.2)" d="M 0 0"/></g><g transform="translate(188,554)"><g><g>
<path d="M132,0H0v65h132V0L132,0z" stroke="#000000" stroke-dasharray="none" fill="#FFFFFF"/>
<rect x="5.8" y="3" width="120.5" height="59.1" fill="none"/>
<circle fill="none" cx="66" cy="0" r="0.1"/>
<circle fill="none" cx="98.7" cy="0" r="0.1"/>
<circle fill="none" cx="132" cy="16.4" r="0.1"/>
<circle fill="none" cx="132" cy="32.5" r="0.1"/>
<circle fill="none" cx="132" cy="48.6" r="0.1"/>
<circle fill="none" cx="98.7" cy="65" r="0.1"/>
<circle fill="none" cx="66" cy="65" r="0.1"/>
<circle fill="none" cx="33.3" cy="65" r="0.1"/>
<circle fill="none" cx="0" cy="48.6" r="0.1"/>
<circle fill="none" cx="0" cy="32.5" r="0.1"/>
<circle fill="none" cx="0" cy="16.4" r="0.1"/>
<circle fill="none" cx="33.3" cy="0" r="0.1"/>
</g></g><rect stroke="none" stroke-width="1" fill="#FFFFFF" x="0" y="0" width="40" height="20" transform="translate(-16.8,-62.1)"/><path stroke="#000000" fill="none" d="M33.3,0 C40.8,-28.2 1.5,-13.9 9 -42.1"/><text font-family="OpenSansCondensedLight" font-size="14pt" fill="black" transform="translate(-16.8,-62.1)" text-anchor="middle"><tspan x="20" y="16.3">112</tspan></text><rect stroke-width="0" fill="none" width="120.5" height="59.1" transform="translate(5.8,3)"/><text font-family="OpenSansCondensedLight" font-size="14pt" fill="black" transform="translate(5.8,3)" text-anchor="middle"><tspan x="60.2" y="35.8">PROCESSOR  </tspan></text><path stroke="#000000" fill="none" transform="translate(5.8,3)" d="M 0 0"/></g><g transform="translate(359,637)"><g><g>
<path d="M132,0H0v65h132V0L132,0z" stroke="#000000" stroke-dasharray="none" fill="#FFFFFF"/>
<rect x="5.8" y="3" width="120.5" height="59.1" fill="none"/>
<circle fill="none" cx="66" cy="0" r="0.1"/>
<circle fill="none" cx="98.7" cy="0" r="0.1"/>
<circle fill="none" cx="132" cy="16.4" r="0.1"/>
<circle fill="none" cx="132" cy="32.5" r="0.1"/>
<circle fill="none" cx="132" cy="48.6" r="0.1"/>
<circle fill="none" cx="98.7" cy="65" r="0.1"/>
<circle fill="none" cx="66" cy="65" r="0.1"/>
<circle fill="none" cx="33.3" cy="65" r="0.1"/>
<circle fill="none" cx="0" cy="48.6" r="0.1"/>
<circle fill="none" cx="0" cy="32.5" r="0.1"/>
<circle fill="none" cx="0" cy="16.4" r="0.1"/>
<circle fill="none" cx="33.3" cy="0" r="0.1"/>
</g></g><rect stroke="none" stroke-width="1" fill="#FFFFFF" x="0" y="0" width="40" height="20" transform="translate(163.9,68.5)"/><path stroke="#000000" fill="none" d="M132,48.6 C138.2,71.7 160.3,45.4 166.5 68.5"/><text font-family="OpenSansCondensedLight" font-size="14pt" fill="black" transform="translate(163.9,68.5)" text-anchor="middle"><tspan x="20" y="16.3">118</tspan></text><rect stroke-width="0" fill="none" width="120.5" height="59.1" transform="translate(5.8,3)"/><text font-family="OpenSansCondensedLight" font-size="14pt" fill="black" transform="translate(5.8,3)" text-anchor="middle"><tspan x="60.2" y="35.8">BATTERY</tspan></text><path stroke="#000000" fill="none" transform="translate(5.8,3)" d="M 0 0"/></g><g transform="translate(189,636)"><g><g>
<path d="M132,0H0v65h132V0L132,0z" stroke="#000000" stroke-dasharray="none" fill="#FFFFFF"/>
<rect x="5.8" y="3" width="120.5" height="59.1" fill="none"/>
<circle fill="none" cx="66" cy="0" r="0.1"/>
<circle fill="none" cx="98.7" cy="0" r="0.1"/>
<circle fill="none" cx="132" cy="16.4" r="0.1"/>
<circle fill="none" cx="132" cy="32.5" r="0.1"/>
<circle fill="none" cx="132" cy="48.6" r="0.1"/>
<circle fill="none" cx="98.7" cy="65" r="0.1"/>
<circle fill="none" cx="66" cy="65" r="0.1"/>
<circle fill="none" cx="33.3" cy="65" r="0.1"/>
<circle fill="none" cx="0" cy="48.6" r="0.1"/>
<circle fill="none" cx="0" cy="32.5" r="0.1"/>
<circle fill="none" cx="0" cy="16.4" r="0.1"/>
<circle fill="none" cx="33.3" cy="0" r="0.1"/>
</g></g><rect stroke="none" stroke-width="1" fill="#FFFFFF" x="0" y="0" width="40" height="20" transform="translate(-72.1,68.5)"/><path stroke="#000000" fill="none" d="M0,48.6 C-23.1,42.4 -11.5,74.8 -34.6 68.5"/><text font-family="OpenSansCondensedLight" font-size="14pt" fill="black" transform="translate(-72.1,68.5)" text-anchor="middle"><tspan x="20" y="16.3">116</tspan></text><rect stroke-width="0" fill="none" width="120.5" height="59.1" transform="translate(5.8,3)"/><text font-family="OpenSansCondensedLight" font-size="14pt" fill="black" transform="translate(5.8,3)" text-anchor="middle"><tspan x="60.2" y="35.8">MEMORY</tspan></text><path stroke="#000000" fill="none" transform="translate(5.8,3)" d="M 0 0"/></g><g transform="translate(358,554)"><g><g>
<path d="M132,0H0v65h132V0L132,0z" stroke="#000000" stroke-dasharray="none" fill="#FFFFFF"/>
<rect x="5.8" y="3" width="120.5" height="59.1" fill="none"/>
<circle fill="none" cx="66" cy="0" r="0.1"/>
<circle fill="none" cx="98.7" cy="0" r="0.1"/>
<circle fill="none" cx="132" cy="16.4" r="0.1"/>
<circle fill="none" cx="132" cy="32.5" r="0.1"/>
<circle fill="none" cx="132" cy="48.6" r="0.1"/>
<circle fill="none" cx="98.7" cy="65" r="0.1"/>
<circle fill="none" cx="66" cy="65" r="0.1"/>
<circle fill="none" cx="33.3" cy="65" r="0.1"/>
<circle fill="none" cx="0" cy="48.6" r="0.1"/>
<circle fill="none" cx="0" cy="32.5" r="0.1"/>
<circle fill="none" cx="0" cy="16.4" r="0.1"/>
<circle fill="none" cx="33.3" cy="0" r="0.1"/>
</g></g><rect stroke="none" stroke-width="1" fill="#FFFFFF" x="0" y="0" width="40" height="20" transform="translate(163.9,-23.7)"/><path stroke="#000000" fill="none" d="M132,16.4 C155.2,22.6 143.4,-9.9 166.6 -3.7"/><text font-family="OpenSansCondensedLight" font-size="14pt" fill="black" transform="translate(163.9,-23.7)" text-anchor="middle"><tspan x="20" y="16.3">114</tspan></text><rect stroke-width="0" fill="none" width="120.5" height="59.1" transform="translate(5.8,3)"/><text font-family="OpenSansCondensedLight" font-size="14pt" fill="black" transform="translate(5.8,3)" text-anchor="middle"><tspan x="60.2" y="25.3">COMMUNICATION</tspan><tspan x="60.2" y="46.3">INTERFACE</tspan></text><path stroke="#000000" fill="none" transform="translate(5.8,3)" d="M 0 0"/></g><g transform="translate(404.5,705.5)"><g transform="rotate(90,20.5,17.5)"><g>
<g stroke="#000000" stroke-dasharray="none" fill="#FFFFFF">
    <path stroke-linecap="round" stroke-linejoin="round" d="M0,0h25.6c8.5,0,15.4,7.8,15.4,17.5S34.1,35,25.6,35l0,0H0V0z"/>
</g>
<rect x="1.6" y="3.7" fill="none" width="32" height="27.5"/>
<circle fill="none" cx="18.1" cy="0" r="0.1"/>
<circle fill="none" cx="26.6" cy="0" r="0.1"/>
<circle fill="none" cx="37.2" cy="6.1" r="0.1"/>
<circle fill="none" cx="41" cy="17.5" r="0.1"/>
<circle fill="none" cx="37.7" cy="28.4" r="0.1"/>
<circle fill="none" cx="30.3" cy="34.1" r="0.1"/>
<circle fill="none" cx="18.1" cy="35" r="0.1"/>
<circle fill="none" cx="4.5" cy="35" r="0.1"/>
<circle fill="none" cx="0" cy="29.3" r="0.1"/>
<circle fill="none" cx="0" cy="17.5" r="0.1"/>
<circle fill="none" cx="0" cy="5.6" r="0.1"/>
<circle fill="none" cx="6.4" cy="0" r="0.1"/>
</g></g><rect stroke="none" stroke-width="1" fill="#FFFFFF" x="0" y="0" width="40" height="20" transform="translate(41.8,76)"/><path stroke="#000000" fill="none" d="M31.9,34.2 C24.4,62.2 63.6,48 56.1 76"/><text font-family="OpenSansCondensedLight" font-size="14pt" fill="black" transform="translate(41.8,76)" text-anchor="middle"><tspan x="20" y="16.3">120</tspan></text><rect stroke-width="0" fill="none" width="27.5" height="32" transform="translate(6.7,-1.4)"/><text font-family="OpenSansCondensedLight" font-size="14pt" fill="black" transform="translate(6.7,-1.4)" text-anchor="middle"><tspan x="13.8" y="22.3"> </tspan></text><path stroke="#000000" fill="none" transform="translate(6.7,-1.4)" d="M 0 0"/></g></g><defs/></svg>